<svg width="1em" height="1em" viewBox="0 0 43 35" fill="none" xmlns="http://www.w3.org/2000/svg">
<path d="M4.59784 0.625C3.81578 0.624722 3.0512 0.856488 2.40081 1.29099C1.75042 1.72548 1.24343 2.34319 0.943952 3.06599C0.644479 3.78879 0.565979 4.58422 0.718381 5.35165C0.870782 6.11909 1.24724 6.82408 1.80014 7.37744C2.35304 7.93081 3.05755 8.3077 3.82456 8.46045C4.59157 8.6132 5.38663 8.53494 6.10918 8.23558C6.83173 7.93622 7.44932 7.4292 7.88384 6.77864C8.31836 6.12809 8.55028 5.36322 8.55028 4.58078C8.55047 4.06137 8.44837 3.547 8.24982 3.06708C8.05128 2.58715 7.76017 2.15105 7.39313 1.78371C7.0261 1.41636 6.59032 1.12496 6.1107 0.926144C5.63107 0.72733 5.117 0.625 4.59784 0.625V0.625ZM4.59784 13.8086C3.81584 13.8086 3.0514 14.0406 2.40119 14.4753C1.75099 14.9099 1.24421 15.5277 0.944954 16.2506C0.645697 16.9734 0.567397 17.7688 0.719958 18.5361C0.872518 19.3035 1.24909 20.0083 1.80204 20.5615C2.355 21.1148 3.05951 21.4915 3.82648 21.6441C4.59345 21.7968 5.38844 21.7184 6.11091 21.419C6.83338 21.1196 7.45089 20.6126 7.88534 19.9621C8.3198 19.3116 8.55169 18.5468 8.55169 17.7644C8.55187 17.2448 8.44973 16.7304 8.25109 16.2503C8.05246 15.7703 7.76123 15.3342 7.39404 14.9668C7.02686 14.5994 6.59091 14.3081 6.11113 14.1093C5.63134 13.9106 5.11712 13.8084 4.59784 13.8086V13.8086ZM4.59784 26.9922C3.81584 26.9922 3.0514 27.2242 2.40119 27.6589C1.75099 28.0935 1.24421 28.7113 0.944954 29.4342C0.645697 30.157 0.567397 30.9524 0.719958 31.7197C0.872518 32.4871 1.24909 33.1919 1.80204 33.7451C2.355 34.2984 3.05951 34.6751 3.82648 34.8277C4.59345 34.9804 5.38844 34.902 6.11091 34.6026C6.83338 34.3032 7.45089 33.7962 7.88534 33.1457C8.3198 32.4952 8.55169 31.7303 8.55169 30.948C8.55169 29.8991 8.13531 28.8931 7.39413 28.1513C6.65294 27.4095 5.64762 26.9926 4.59924 26.9922H4.59784ZM41.4939 28.3112H15.1396C14.9665 28.3111 14.7951 28.345 14.6351 28.4111C14.4752 28.4773 14.3298 28.5743 14.2074 28.6967C14.0849 28.8191 13.9878 28.9644 13.9215 29.1243C13.8553 29.2843 13.8211 29.4558 13.8211 29.6289V32.2656C13.821 32.4389 13.8549 32.6105 13.9211 32.7706C13.9873 32.9307 14.0844 33.0762 14.2069 33.1988C14.3294 33.3213 14.4748 33.4184 14.6348 33.4847C14.7948 33.5509 14.9664 33.5849 15.1396 33.5847H41.4939C41.8433 33.5843 42.1783 33.4452 42.4252 33.1978C42.6722 32.9505 42.8109 32.6152 42.8109 32.2656V29.6289C42.8105 29.2796 42.6717 28.9446 42.4247 28.6976C42.1778 28.4506 41.8431 28.3116 41.4939 28.3112V28.3112ZM41.4939 1.94406H15.1396C14.9665 1.94406 14.7951 1.97819 14.6352 2.0445C14.4754 2.1108 14.3301 2.20799 14.2078 2.33049C14.0855 2.453 13.9885 2.59842 13.9224 2.75845C13.8563 2.91848 13.8224 3.08997 13.8226 3.26313V5.89844C13.8224 6.07171 13.8563 6.24332 13.9225 6.40344C13.9887 6.56356 14.0858 6.70904 14.2083 6.83157C14.3308 6.95409 14.4762 7.05125 14.6362 7.11747C14.7963 7.18369 14.9678 7.21768 15.141 7.2175H41.4953C41.8445 7.21675 42.1791 7.07745 42.4257 6.83016C42.6724 6.58287 42.8109 6.24779 42.8109 5.89844V3.26172C42.8105 2.91237 42.6717 2.57743 42.4247 2.33041C42.1778 2.08338 41.8431 1.94444 41.4939 1.94406V1.94406ZM41.4939 15.1277H15.1396C14.9665 15.1277 14.7951 15.1618 14.6352 15.2281C14.4754 15.2944 14.3301 15.3916 14.2078 15.5141C14.0855 15.6366 13.9885 15.782 13.9224 15.942C13.8563 16.1021 13.8224 16.2736 13.8226 16.4467V19.082C13.8224 19.2553 13.8563 19.4269 13.9225 19.587C13.9887 19.7472 14.0858 19.8926 14.2083 20.0152C14.3308 20.1377 14.4762 20.2348 14.6362 20.3011C14.7963 20.3673 14.9678 20.4013 15.141 20.4011H41.4953C41.8445 20.4003 42.1791 20.261 42.4257 20.0138C42.6724 19.7665 42.8109 19.4314 42.8109 19.082V16.4453C42.8105 16.096 42.6717 15.761 42.4247 15.514C42.1778 15.267 41.8431 15.128 41.4939 15.1277V15.1277Z" fill="white"/>
</svg>
