<svg width="1em" height="1em" viewBox="0 0 32 33" fill="none" xmlns="http://www.w3.org/2000/svg">
<path d="M22.125 5.37204H23.2762V9.95501H22.1307C21.8269 9.95501 21.5355 10.0758 21.3207 10.2907C21.1058 10.5056 20.9851 10.7971 20.9851 11.1011V13.3933C20.9851 13.6973 21.1058 13.9888 21.3207 14.2037C21.5355 14.4186 21.8269 14.5394 22.1307 14.5394H28.9969C29.3007 14.5394 29.592 14.4186 29.8069 14.2037C30.0217 13.9888 30.1424 13.6973 30.1424 13.3933V11.1011C30.1424 10.7971 30.0217 10.5056 29.8069 10.2907C29.592 10.0758 29.3007 9.95501 28.9969 9.95501H27.8513V1.93938C27.8513 1.78888 27.8217 1.63984 27.7641 1.50079C27.7065 1.36174 27.6222 1.2354 27.5158 1.12897C27.4094 1.02255 27.2831 0.938127 27.1442 0.88053C27.0052 0.822934 26.8562 0.793289 26.7058 0.793289H23.2762C23.0638 0.793471 22.8556 0.852749 22.6749 0.964499C22.4942 1.07625 22.3481 1.23607 22.253 1.4261L21.1074 3.71829C21.02 3.89295 20.9786 4.08707 20.9872 4.28223C20.9959 4.47738 21.0542 4.66709 21.1567 4.83334C21.2592 4.99959 21.4025 5.13687 21.573 5.23214C21.7435 5.3274 21.9354 5.3775 22.1307 5.37766L22.125 5.37204ZM23.9973 17.0439C23.0643 17.2998 22.2126 17.7909 21.5236 18.4702C20.8345 19.1495 20.3312 19.9943 20.0617 20.9238C19.824 21.7336 19.7673 22.5859 19.8958 23.4201C20.0242 24.2544 20.3346 25.0501 20.805 25.7508C21.2753 26.4515 21.894 27.0401 22.6172 27.4748C23.3404 27.9094 24.1504 28.1795 24.9896 28.2658C24.5398 28.6451 24.0369 28.9564 23.4969 29.1897C23.2377 29.3185 23.0348 29.538 22.9268 29.8066C22.8187 30.0751 22.813 30.3741 22.9108 30.6466L23.6135 32.0781C23.6614 32.2255 23.7389 32.3614 23.8414 32.4776C23.9438 32.5938 24.069 32.6878 24.2091 32.7537C24.3493 32.8195 24.5015 32.856 24.6562 32.8607C24.811 32.8655 24.9651 32.8384 25.1091 32.7813C29.2667 31.0094 31.2879 28.3713 31.2879 23.3299V22.5592C31.286 21.6736 31.0795 20.8004 30.6845 20.0078C30.2895 19.2152 29.7167 18.5247 29.0108 17.9901C28.305 17.4556 27.4852 17.0916 26.6155 16.9265C25.7458 16.7614 24.8497 16.7996 23.9973 17.0383V17.0439ZM25.5617 23.9964C25.2787 23.9964 25.002 23.9125 24.7667 23.7552C24.5314 23.5979 24.348 23.3743 24.2397 23.1127C24.1314 22.8511 24.1031 22.5633 24.1583 22.2856C24.2135 22.0079 24.3498 21.7528 24.5499 21.5526C24.75 21.3524 25.0049 21.216 25.2825 21.1608C25.5601 21.1056 25.8478 21.1339 26.1092 21.2423C26.3707 21.3506 26.5941 21.5341 26.7514 21.7695C26.9086 22.0049 26.9925 22.2817 26.9925 22.5649C26.9925 22.7528 26.9555 22.939 26.8836 23.1127C26.8117 23.2864 26.7063 23.4442 26.5734 23.5771C26.4406 23.7101 26.2828 23.8155 26.1092 23.8874C25.9356 23.9594 25.7496 23.9964 25.5617 23.9964ZM12.9636 23.7152H9.52698V12.8252V1.93516C9.52698 1.7843 9.49721 1.63492 9.43938 1.4956C9.38155 1.35627 9.29679 1.22974 9.18997 1.12326C9.08316 1.01678 8.95637 0.932446 8.8169 0.875098C8.67743 0.81775 8.52802 0.788515 8.37723 0.78907H6.09178C5.78797 0.78907 5.4966 0.909819 5.28177 1.12475C5.06694 1.33969 4.94625 1.6312 4.94625 1.93516V23.7053H1.51105C1.28502 23.706 1.06424 23.7736 0.876525 23.8996C0.688808 24.0256 0.54254 24.2043 0.456136 24.4133C0.369732 24.6223 0.347053 24.8522 0.390955 25.074C0.434857 25.2958 0.543378 25.4997 0.702854 25.66L6.42912 32.5352C6.64392 32.7499 6.93511 32.8704 7.23873 32.8704C7.54234 32.8704 7.83353 32.7499 8.04833 32.5352L13.7746 25.66C13.9336 25.4993 14.0415 25.2952 14.085 25.0733C14.1284 24.8515 14.1053 24.6217 14.0187 24.4129C13.9321 24.2041 13.7857 24.0255 13.598 23.8996C13.4103 23.7737 13.1896 23.7061 12.9636 23.7053V23.7152Z" fill="white"/>
</svg>
