<svg width="1em" height="1em" viewBox="0 0 32 32" fill="none" xmlns="http://www.w3.org/2000/svg">
<path d="M12.7423 22.5367H9.42942V1.54281C9.42942 1.24967 9.31303 0.968525 9.10584 0.761239C8.89866 0.553952 8.61765 0.4375 8.32465 0.4375H6.11651C5.8235 0.4375 5.5425 0.553952 5.33532 0.761239C5.12813 0.968525 5.01174 1.24967 5.01174 1.54281V22.5367H1.69882C1.48076 22.5374 1.26778 22.6027 1.08673 22.7243C0.905666 22.8459 0.764622 23.0183 0.68136 23.22C0.598098 23.4216 0.576342 23.6434 0.618833 23.8574C0.661325 24.0714 0.766162 24.268 0.92014 24.4225L6.44119 31.0516C6.64835 31.2586 6.92918 31.3749 7.22198 31.3749C7.51479 31.3749 7.79562 31.2586 8.00278 31.0516L13.5252 24.4225C13.6788 24.2675 13.7831 24.0705 13.8251 23.8564C13.867 23.6422 13.8448 23.4204 13.7611 23.2189C13.6775 23.0174 13.5361 22.8451 13.3548 22.7237C13.1736 22.6023 12.9605 22.5373 12.7423 22.5367ZM29.3083 18.1169H20.4729C20.1799 18.1169 19.8989 18.2333 19.6917 18.4406C19.4846 18.6479 19.3682 18.929 19.3682 19.2222V21.4314C19.3682 21.5766 19.3967 21.7203 19.4523 21.8544C19.5078 21.9885 19.5892 22.1103 19.6917 22.213C19.7943 22.3156 19.9161 22.397 20.0502 22.4526C20.1842 22.5081 20.3279 22.5367 20.4729 22.5367H24.3382L20.1103 27.4023C19.8772 27.6098 19.6906 27.8643 19.5629 28.1491C19.4353 28.4339 19.3694 28.7425 19.3696 29.0547V30.2725C19.3696 30.5656 19.486 30.8468 19.6931 31.0541C19.9003 31.2614 20.1813 31.3778 20.4743 31.3778H29.3097C29.6027 31.3778 29.8837 31.2614 30.0909 31.0541C30.2981 30.8468 30.4145 30.5656 30.4145 30.2725V28.0605C30.4145 27.9153 30.3859 27.7716 30.3304 27.6375C30.2749 27.5034 30.1935 27.3815 30.0909 27.2789C29.9883 27.1763 29.8665 27.0948 29.7325 27.0393C29.5985 26.9837 29.4548 26.9552 29.3097 26.9552H25.4444L29.6724 22.0895C29.9055 21.8821 30.092 21.6276 30.2197 21.3428C30.3474 21.058 30.4133 20.7493 30.4131 20.4372V19.2194C30.4123 18.9267 30.2956 18.6463 30.0885 18.4396C29.8814 18.2329 29.6008 18.1169 29.3083 18.1169ZM31.4518 12.2205L27.3616 1.17156C27.2851 0.956825 27.144 0.771019 26.9578 0.639605C26.7716 0.508191 26.5494 0.437598 26.3215 0.4375H23.4612C23.2333 0.437598 23.011 0.508191 22.8248 0.639605C22.6386 0.771019 22.4976 0.956825 22.421 1.17156L18.3295 12.2205C18.27 12.3872 18.2515 12.5658 18.2754 12.7412C18.2994 12.9167 18.3651 13.0837 18.467 13.2285C18.5689 13.3732 18.7041 13.4913 18.8612 13.5728C19.0183 13.6544 19.1926 13.697 19.3696 13.697H21.083C21.3165 13.6971 21.5441 13.6231 21.733 13.4856C21.9219 13.3482 22.0624 13.1544 22.1343 12.932L22.4393 12.0405H27.3405L27.6455 12.932C27.7176 13.1548 27.8585 13.349 28.048 13.4865C28.2374 13.6239 28.4657 13.6977 28.6997 13.697H30.4145C30.5914 13.697 30.7658 13.6544 30.9229 13.5728C31.0799 13.4913 31.2151 13.3732 31.3171 13.2285C31.419 13.0837 31.4847 12.9167 31.5086 12.7412C31.5326 12.5658 31.514 12.3872 31.4546 12.2205H31.4518ZM23.7591 8.17188L24.8836 4.85734L26.008 8.17188H23.7591Z" fill="white"/>
</svg>
